<svg width="21" height="20" viewBox="0 0 21 20" fill="none" xmlns="http://www.w3.org/2000/svg">
<path d="M20.8717 5.39315C20.7411 5.21169 20.5659 5.12097 20.346 5.12097H6.34912L5.27719 1.55242C5.18099 1.22984 5.05044 0.954301 4.88552 0.725806C4.72061 0.497312 4.54539 0.336021 4.35987 0.241935C4.17434 0.147849 4.01286 0.0840054 3.87544 0.0504032C3.73801 0.0168011 3.60058 0 3.46316 0H0.639035C0.46038 0 0.30921 0.0604839 0.185526 0.181452C0.0618421 0.302419 0 0.456989 0 0.645161C0 0.752688 0.0274854 0.856855 0.0824561 0.957661C0.137427 1.05847 0.216447 1.13575 0.319517 1.18952C0.422587 1.24328 0.529093 1.27016 0.639035 1.27016H3.46316C3.51813 1.27016 3.56966 1.27688 3.61776 1.29032C3.66586 1.30376 3.73114 1.36089 3.81359 1.46169C3.89605 1.5625 3.96476 1.71371 4.01973 1.91532L7.66842 15.0202C7.6959 15.1008 7.74056 15.1781 7.80241 15.252C7.86425 15.3259 7.9364 15.3831 8.01885 15.4234C8.10131 15.4637 8.19064 15.4839 8.28684 15.4839H17.1921C17.3295 15.4839 17.4566 15.4435 17.5735 15.3629C17.6903 15.2823 17.7693 15.1815 17.8105 15.0605L20.9645 5.9879C21.0332 5.77285 21.0023 5.5746 20.8717 5.39315ZM16.7386 14.1935H8.80219L6.69956 6.41129H19.3978L16.7386 14.1935ZM15.4399 16.7742C14.9864 16.7742 14.5982 16.9321 14.2752 17.248C13.9523 17.5638 13.7908 17.9435 13.7908 18.3871C13.7908 18.8306 13.9523 19.2103 14.2752 19.5262C14.5982 19.8421 14.9864 20 15.4399 20C15.8934 20 16.2816 19.8421 16.6046 19.5262C16.9275 19.2103 17.089 18.8306 17.089 18.3871C17.089 17.9435 16.9275 17.5638 16.6046 17.248C16.2816 16.9321 15.8934 16.7742 15.4399 16.7742ZM9.50306 16.7742C9.20072 16.7742 8.92244 16.8481 8.6682 16.996C8.41396 17.1438 8.21469 17.3387 8.07039 17.5806C7.92609 17.8226 7.85394 18.0914 7.85394 18.3871C7.85394 18.8306 8.01542 19.2103 8.33837 19.5262C8.66132 19.8421 9.04956 20 9.50306 20C9.95657 20 10.3448 19.8421 10.6678 19.5262C10.9907 19.2103 11.1522 18.8306 11.1522 18.3871C11.1522 18.2796 11.1419 18.172 11.1213 18.0645C11.1007 17.957 11.0697 17.8562 11.0285 17.7621C10.9873 17.668 10.9357 17.5773 10.8739 17.4899C10.8121 17.4026 10.7433 17.3219 10.6678 17.248C10.5922 17.1741 10.5097 17.1069 10.4204 17.0464C10.3311 16.9859 10.2383 16.9355 10.1421 16.8952C10.0459 16.8548 9.94283 16.8246 9.83289 16.8044C9.72295 16.7843 9.613 16.7742 9.50306 16.7742Z" fill="#FFBA49"/>
</svg>
