<svg width="35" height="35" viewBox="0 0 35 35" fill="none" xmlns="http://www.w3.org/2000/svg">
<path d="M17.5896 34.0334C14.5683 34.0334 11.7752 33.2906 9.21034 31.8051C6.64548 30.3195 4.61859 28.2972 3.12967 25.7381C1.64075 23.179 0.896286 20.3922 0.896286 17.3777C0.896286 14.3632 1.64075 11.5764 3.12967 9.01731C4.61859 6.45823 6.64548 4.43591 9.21034 2.95034C11.7752 1.46477 14.5683 0.721985 17.5896 0.721985C20.024 0.721985 21.676 1.02018 22.5454 1.61658C23.4149 2.21297 23.8496 3.30275 23.8496 4.88591C23.8496 5.5799 23.6866 6.24136 23.3605 6.87029C23.0345 7.49921 22.6758 8.00886 22.2846 8.39923C21.8933 8.7896 21.5347 9.22876 21.2087 9.71672C20.8826 10.2047 20.7196 10.6764 20.7196 11.1318C20.7196 13.2138 21.7629 14.2548 23.8496 14.2548C24.306 14.2548 24.7788 14.0921 25.2679 13.7668C25.7569 13.4415 26.1971 13.0836 26.5883 12.6933C26.9796 12.3029 27.4904 11.9451 28.1207 11.6198C28.7511 11.2945 29.414 11.1318 30.1096 11.1318C31.6746 11.1318 32.7614 11.5764 33.37 12.4656C33.9786 13.3547 34.2829 14.9921 34.2829 17.3777C34.2829 19.6332 33.8428 21.791 32.9624 23.8513C32.0821 25.9116 30.8975 27.6845 29.4086 29.1701C27.9197 30.6556 26.1427 31.8376 24.0778 32.7159C22.0129 33.5942 19.8502 34.0334 17.5896 34.0334ZM10.2863 27.7875C11.1557 27.7875 11.8947 27.4839 12.5034 26.8767C13.112 26.2694 13.4163 25.5321 13.4163 24.6646C13.4163 23.7971 13.112 23.0597 12.5034 22.4525C11.8947 21.8452 11.1557 21.5416 10.2863 21.5416C9.41683 21.5416 8.6778 21.8452 8.06919 22.4525C7.46058 23.0597 7.15628 23.7971 7.15628 24.6646C7.15628 25.5321 7.46058 26.2694 8.06919 26.8767C8.6778 27.4839 9.41683 27.7875 10.2863 27.7875ZM8.19961 11.1318C7.33017 11.1318 6.59114 11.4354 5.98253 12.0427C5.37392 12.6499 5.06961 13.3873 5.06961 14.2548C5.06961 15.1222 5.37392 15.8596 5.98253 16.4668C6.59114 17.0741 7.33017 17.3777 8.19961 17.3777C9.06905 17.3777 9.80808 17.0741 10.4167 16.4668C11.0253 15.8596 11.3296 15.1222 11.3296 14.2548C11.3296 13.3873 11.0253 12.6499 10.4167 12.0427C9.80808 11.4354 9.06905 11.1318 8.19961 11.1318ZM14.4596 4.88591C13.5902 4.88591 12.8511 5.18953 12.2425 5.79677C11.6339 6.40401 11.3296 7.14137 11.3296 8.00886C11.3296 8.87634 11.6339 9.61371 12.2425 10.2209C12.8511 10.8282 13.5902 11.1318 14.4596 11.1318C15.329 11.1318 16.0681 10.8282 16.6767 10.2209C17.2853 9.61371 17.5896 8.87634 17.5896 8.00886C17.5896 7.14137 17.2853 6.40401 16.6767 5.79677C16.0681 5.18953 15.329 4.88591 14.4596 4.88591ZM20.7196 23.6236C19.8502 23.6236 19.1111 23.9272 18.5025 24.5345C17.8939 25.1417 17.5896 25.8791 17.5896 26.7465C17.5896 27.614 17.8939 28.3514 18.5025 28.9586C19.1111 29.5659 19.8502 29.8695 20.7196 29.8695C21.589 29.8695 22.3281 29.5659 22.9367 28.9586C23.5453 28.3514 23.8496 27.614 23.8496 26.7465C23.8496 25.8791 23.5453 25.1417 22.9367 24.5345C22.3281 23.9272 21.589 23.6236 20.7196 23.6236ZM26.9796 17.3777C26.1101 17.3777 25.3711 17.6813 24.7625 18.2886C24.1539 18.8958 23.8496 19.6332 23.8496 20.5006C23.8496 21.3681 24.1539 22.1055 24.7625 22.7127C25.3711 23.32 26.1101 23.6236 26.9796 23.6236C27.849 23.6236 28.5881 23.32 29.1967 22.7127C29.8053 22.1055 30.1096 21.3681 30.1096 20.5006C30.1096 19.6332 29.8053 18.8958 29.1967 18.2886C28.5881 17.6813 27.849 17.3777 26.9796 17.3777Z" fill="#EF5B5B"/>
</svg>
