<svg width="34" height="34" viewBox="0 0 34 34" fill="none" xmlns="http://www.w3.org/2000/svg">
<path d="M16.6933 33.3114C13.672 33.3114 10.8789 32.5686 8.31405 31.0831C5.74919 29.5975 3.7223 27.5752 2.23338 25.0161C0.744461 22.457 0 19.6702 0 16.6557C0 13.6412 0.744461 10.8544 2.23338 8.29533C3.7223 5.73625 5.74919 3.71392 8.31405 2.22835C10.8789 0.742784 13.672 0 16.6933 0C19.1278 0 20.7797 0.298198 21.6491 0.894594C22.5186 1.49099 22.9533 2.58077 22.9533 4.16393C22.9533 4.85792 22.7903 5.51937 22.4642 6.1483C22.1382 6.77723 21.7796 7.28687 21.3883 7.67724C20.9971 8.06761 20.6384 8.50678 20.3124 8.99474C19.9863 9.4827 19.8233 9.95439 19.8233 10.4098C19.8233 12.4918 20.8666 13.5328 22.9533 13.5328C23.4098 13.5328 23.8825 13.3701 24.3716 13.0448C24.8606 12.7195 25.3008 12.3617 25.6921 11.9713C26.0833 11.5809 26.5941 11.2231 27.2244 10.8978C27.8548 10.5725 28.5177 10.4098 29.2133 10.4098C30.7783 10.4098 31.8651 10.8544 32.4737 11.7436C33.0823 12.6328 33.3866 14.2701 33.3866 16.6557C33.3866 18.9112 32.9465 21.069 32.0662 23.1293C31.1858 25.1896 30.0012 26.9625 28.5123 28.4481C27.0234 29.9337 25.2465 31.1156 23.1815 31.9939C21.1166 32.8723 18.9539 33.3114 16.6933 33.3114ZM9.38999 27.0655C10.2594 27.0655 10.9985 26.7619 11.6071 26.1547C12.2157 25.5474 12.52 24.8101 12.52 23.9426C12.52 23.0751 12.2157 22.3377 11.6071 21.7305C10.9985 21.1233 10.2594 20.8196 9.38999 20.8196C8.52054 20.8196 7.78152 21.1233 7.17291 21.7305C6.5643 22.3377 6.25999 23.0751 6.25999 23.9426C6.25999 24.8101 6.5643 25.5474 7.17291 26.1547C7.78152 26.7619 8.52054 27.0655 9.38999 27.0655ZM7.30332 10.4098C6.43388 10.4098 5.69485 10.7134 5.08624 11.3207C4.47763 11.9279 4.17333 12.6653 4.17333 13.5328C4.17333 14.4003 4.47763 15.1376 5.08624 15.7449C5.69485 16.3521 6.43388 16.6557 7.30332 16.6557C8.17277 16.6557 8.91179 16.3521 9.5204 15.7449C10.129 15.1376 10.4333 14.4003 10.4333 13.5328C10.4333 12.6653 10.129 11.9279 9.5204 11.3207C8.91179 10.7134 8.17277 10.4098 7.30332 10.4098ZM13.5633 4.16393C12.6939 4.16393 11.9548 4.46755 11.3462 5.07479C10.7376 5.68203 10.4333 6.41939 10.4333 7.28687C10.4333 8.15436 10.7376 8.89172 11.3462 9.49896C11.9548 10.1062 12.6939 10.4098 13.5633 10.4098C14.4328 10.4098 15.1718 10.1062 15.7804 9.49896C16.389 8.89172 16.6933 8.15436 16.6933 7.28687C16.6933 6.41939 16.389 5.68203 15.7804 5.07479C15.1718 4.46755 14.4328 4.16393 13.5633 4.16393ZM19.8233 22.9016C18.9539 22.9016 18.2148 23.2052 17.6062 23.8125C16.9976 24.4197 16.6933 25.1571 16.6933 26.0246C16.6933 26.892 16.9976 27.6294 17.6062 28.2366C18.2148 28.8439 18.9539 29.1475 19.8233 29.1475C20.6928 29.1475 21.4318 28.8439 22.0404 28.2366C22.649 27.6294 22.9533 26.892 22.9533 26.0246C22.9533 25.1571 22.649 24.4197 22.0404 23.8125C21.4318 23.2052 20.6928 22.9016 19.8233 22.9016ZM26.0833 16.6557C25.2139 16.6557 24.4748 16.9593 23.8662 17.5666C23.2576 18.1738 22.9533 18.9112 22.9533 19.7787C22.9533 20.6461 23.2576 21.3835 23.8662 21.9907C24.4748 22.598 25.2139 22.9016 26.0833 22.9016C26.9527 22.9016 27.6918 22.598 28.3004 21.9907C28.909 21.3835 29.2133 20.6461 29.2133 19.7787C29.2133 18.9112 28.909 18.1738 28.3004 17.5666C27.6918 16.9593 26.9527 16.6557 26.0833 16.6557Z" fill="white"/>
</svg>
